<svg width="48" height="49" viewBox="0 0 48 49" fill="none" xmlns="http://www.w3.org/2000/svg">
<g clip-path="url(#clip0)">
<path d="M1.033 33.4754C-2.602 20.6614 3.686 0.523438 14.705 0.523438C20.802 0.523438 27.405 2.96944 34.102 10.9364C40.8 18.9044 48 15.1694 48 30.5464C48 47.3964 28.5 54.7214 21.332 42.2944C14.397 30.2714 4.667 46.2894 1.032 33.4754H1.033Z" fill="#E2F9C3"/>
<mask id="mask0" mask-type="alpha" maskUnits="userSpaceOnUse" x="12" y="12" width="24" height="25">
<path d="M24 12.5234C22.83 12.5234 21.784 13.3034 21.084 14.5334L18.428 19.1834L20.045 20.1434L22.67 15.5234C23.143 14.6904 23.62 14.4434 23.998 14.4434C24.378 14.4434 24.854 14.6904 25.326 15.5234L28.213 20.5934L26.741 21.5234L31.36 24.4034V18.6434L29.8 19.6034L26.914 14.5334C26.215 13.3034 25.17 12.5234 24 12.5234ZM18.399 21.1334L13.78 24.0134L15.195 24.8834L12.625 29.4134C11.929 30.6394 11.774 31.9974 12.365 33.0434C12.957 34.0894 14.155 34.6034 15.541 34.6034H21.228V32.6834H15.541C14.585 32.6834 14.131 32.3684 13.953 32.0534C13.777 31.7384 13.741 31.2064 14.213 30.3734L16.753 25.8734L18.399 26.8934V21.1334ZM33.122 25.5434L31.562 26.5334L33.786 30.3734C34.262 31.2094 34.222 31.7384 34.046 32.0534C33.869 32.3684 33.414 32.6834 32.458 32.6834H27.695V30.7634L23.075 33.6434L27.695 36.5234V34.6034H32.458C33.844 34.6034 35.042 34.0894 35.633 33.0434C36.225 31.9974 36.073 30.6434 35.373 29.4134V29.3834L33.122 25.5434Z" fill="white"/>
</mask>
<g mask="url(#mask0)">
<path d="M24 12.5234C22.83 12.5234 21.784 13.3034 21.084 14.5334L18.428 19.1834L20.045 20.1434L22.67 15.5234C23.143 14.6904 23.62 14.4434 23.998 14.4434C24.378 14.4434 24.854 14.6904 25.326 15.5234L28.213 20.5934L26.741 21.5234L31.36 24.4034V18.6434L29.8 19.6034L26.914 14.5334C26.215 13.3034 25.17 12.5234 24 12.5234ZM18.399 21.1334L13.78 24.0134L15.195 24.8834L12.625 29.4134C11.929 30.6394 11.774 31.9974 12.365 33.0434C12.957 34.0894 14.155 34.6034 15.541 34.6034H21.228V32.6834H15.541C14.585 32.6834 14.131 32.3684 13.953 32.0534C13.777 31.7384 13.741 31.2064 14.213 30.3734L16.753 25.8734L18.399 26.8934V21.1334ZM33.122 25.5434L31.562 26.5334L33.786 30.3734C34.262 31.2094 34.222 31.7384 34.046 32.0534C33.869 32.3684 33.414 32.6834 32.458 32.6834H27.695V30.7634L23.075 33.6434L27.695 36.5234V34.6034H32.458C33.844 34.6034 35.042 34.0894 35.633 33.0434C36.225 31.9974 36.073 30.6434 35.373 29.4134V29.3834L33.122 25.5434Z" fill="#3A8241" stroke="#3A8241" stroke-width="3.846"/>
</g>
</g>
<defs>
<clipPath id="clip0">
<rect width="48" height="48" fill="white" transform="translate(0 0.523438)"/>
</clipPath>
</defs>
</svg>
