<svg width="38" height="38" viewBox="0 0 38 38" fill="none" xmlns="http://www.w3.org/2000/svg">
<path d="M17.12 1.25362C23.88 4.40662 25.443 8.33962 25.776 10.4036C26.152 12.7596 25.321 14.5406 24.493 15.3476C23.655 16.1676 22.771 16.5816 21.865 16.5816C21.604 16.5816 21.359 16.5466 21.132 16.4886L16.161 2.00362C16.1438 1.87839 16.1593 1.75083 16.2061 1.6334C16.2529 1.51597 16.3294 1.41268 16.428 1.33362L17.12 1.25362ZM17.12 1.25162C17.0083 1.20017 16.8846 1.18059 16.7624 1.19506C16.6403 1.20954 16.5246 1.25749 16.428 1.33362L17.12 1.25162ZM17.12 1.25162L16.908 1.70462C23.528 4.79462 24.977 8.59262 25.282 10.4806C25.635 12.6886 24.848 14.3026 24.144 14.9886H24.143C23.371 15.7456 22.606 16.0806 21.865 16.0806C21.6461 16.0803 21.4281 16.0507 21.217 15.9926C21.891 11.8076 21.289 8.79462 20.109 5.71262C20.0547 5.56398 19.971 5.4278 19.8629 5.31217C19.7549 5.19654 19.6247 5.10382 19.4801 5.03954C19.3355 4.97526 19.1794 4.94072 19.0212 4.93799C18.8629 4.93525 18.7058 4.96437 18.559 5.02362L18.552 5.02662C18.2608 5.15371 18.0301 5.38857 17.9082 5.68197C17.7863 5.97538 17.7826 6.30458 17.898 6.60062C19.023 9.54062 19.532 12.2406 18.761 16.2646C18.299 16.4036 17.841 16.5226 17.406 16.5226C16.27 16.5226 15.339 16.1556 14.641 15.5176C13.941 14.8776 13.445 13.9366 13.241 12.7426C12.713 9.64862 14.065 7.49862 15.241 5.65062L15.263 5.61562C15.647 5.01162 16.029 4.40962 16.295 3.82562C16.568 3.22762 16.744 2.59562 16.656 1.93762C16.6502 1.89854 16.6545 1.85863 16.6685 1.82168C16.6825 1.78474 16.7057 1.75201 16.736 1.72662L16.428 1.33362L17.12 1.25162ZM17.12 1.25162L16.909 1.70562C16.8809 1.6927 16.8498 1.68752 16.819 1.69062C16.789 1.69517 16.7607 1.70759 16.737 1.72662L16.428 1.33362L17.12 1.25162ZM20.559 16.8256C20.5153 16.8081 20.472 16.7897 20.429 16.7706L20.324 16.7256C20.233 16.7756 20.138 16.8226 20.041 16.8666L20.559 16.8256ZM20.559 16.8256L20.16 16.2436C20.146 16.3217 20.1317 16.3997 20.117 16.4776L20.056 16.5826L20.093 16.6036L20.041 16.8666L20.559 16.8256ZM20.559 16.8256C20.2952 18.1349 19.9566 19.428 19.545 20.6986L20.559 16.8256ZM20.559 16.8256L19.545 20.6986L20.559 16.8256ZM20.041 16.8666C19.7844 18.1098 19.4599 19.3379 19.069 20.5456L20.041 16.8666ZM20.041 16.8666C19.905 16.9288 19.7665 16.9855 19.626 17.0366L20.041 16.8666ZM19.069 20.5456L19.626 17.0356L19.069 20.5456ZM19.069 20.5456C19.037 20.6446 18.957 20.6896 18.891 20.6896C18.8759 20.6893 18.861 20.6862 18.847 20.6806L18.838 20.6776C18.753 20.6476 18.675 20.5316 18.718 20.3936C19.0744 19.2935 19.3761 18.1765 19.622 17.0466L19.069 20.5456ZM19.069 20.5456L19.622 17.0456L19.069 20.5456ZM19.626 17.0356L19.624 17.0456H19.622L19.626 17.0356ZM19.626 17.0356L19.622 17.0456L19.626 17.0356ZM19.545 20.6986C19.502 20.8392 19.4155 20.9624 19.298 21.0507C19.1805 21.1389 19.038 21.1876 18.891 21.1896C18.8179 21.1889 18.7454 21.1754 18.677 21.1496C18.315 21.0266 18.122 20.6196 18.241 20.2426L19.545 20.6986ZM2.26101 24.5236L2.66201 24.2256L2.65001 24.2086L2.63701 24.1936L2.50401 24.0436C2.12501 23.6156 1.82601 23.2766 1.59601 22.7986C1.34601 22.2786 1.16701 21.5576 1.16701 20.3576V10.3576C1.16701 9.64062 1.40201 9.15362 1.72701 8.84462C2.05701 8.53062 2.52501 8.35762 3.05801 8.35762C3.59101 8.35762 4.05801 8.53062 4.38901 8.84462C4.71401 9.15462 4.94901 9.64062 4.94901 10.3576V17.4926C4.91665 17.5097 4.88497 17.5281 4.85401 17.5476C4.67813 17.663 4.52154 17.8054 4.39001 17.9696C4.07826 18.3631 3.86378 18.8246 3.76401 19.3166C3.52701 20.4236 3.77901 21.8396 5.07201 23.2066L8.56801 27.1096L8.57101 27.1136C8.67557 27.2308 8.80375 27.3246 8.94714 27.3888C9.09053 27.4529 9.24587 27.486 9.40296 27.4858C9.56004 27.4856 9.7153 27.4521 9.85853 27.3877C10.0018 27.3232 10.1297 27.2291 10.234 27.1116C10.4406 26.8794 10.5544 26.5793 10.5539 26.2685C10.5533 25.9578 10.4384 25.6581 10.231 25.4266L6.41301 21.1846L6.41001 21.1816C5.87801 20.6016 5.87501 19.6666 6.42301 19.0666L6.42401 19.0656C6.49601 18.9856 6.73901 18.7646 7.07601 18.7036C7.36901 18.6506 7.85101 18.6976 8.48601 19.3596L12.301 23.6146L12.306 23.6196L12.311 23.6246C13.946 25.3446 15.311 27.4696 15.311 30.3566V37.0236C15.311 37.1196 15.311 37.1836 15.304 37.2416C15.302 37.2663 15.2963 37.2906 15.287 37.3136C15.2004 37.3471 15.1078 37.3621 15.015 37.3576H8.63801C8.59656 37.3582 8.55513 37.3558 8.51401 37.3506C8.476 37.3464 8.43889 37.3363 8.40401 37.3206C8.38929 37.3149 8.37671 37.3048 8.36801 37.2916C8.36301 37.2836 8.34101 37.2436 8.34101 37.1416V31.8596L8.24401 31.7276C7.83201 31.1676 6.43501 29.2916 5.14401 27.5566L3.41801 25.2396L2.86801 24.5016L2.71601 24.2966L2.67601 24.2436L2.66601 24.2296L2.66301 24.2266V24.2256L2.26101 24.5236ZM33.051 17.4926V10.3576C33.051 9.64062 33.286 9.15362 33.611 8.84462C33.941 8.53062 34.409 8.35762 34.942 8.35762C35.475 8.35762 35.942 8.53062 36.273 8.84462C36.598 9.15462 36.833 9.64062 36.833 10.3576V20.3576C36.833 21.5576 36.655 22.2776 36.405 22.7986C36.175 23.2766 35.875 23.6156 35.497 24.0436L35.364 24.1936L35.351 24.2086L35.339 24.2256L35.739 24.5236L35.339 24.2256H35.338L35.335 24.2296L35.325 24.2436L35.285 24.2966L35.133 24.5016L34.583 25.2396L32.857 27.5566C31.8215 28.945 30.7882 30.335 29.757 31.7266L29.66 31.8596V37.1406C29.66 37.2436 29.638 37.2836 29.632 37.2916C29.6238 37.3042 29.612 37.314 29.598 37.3196C29.5628 37.3354 29.5254 37.3455 29.487 37.3496C29.4459 37.3548 29.4045 37.3572 29.363 37.3566H22.986C22.8933 37.3615 22.8007 37.3468 22.714 37.3136C22.7048 37.2906 22.6991 37.2663 22.697 37.2416C22.6898 37.1692 22.6871 37.0964 22.689 37.0236V30.3566C22.689 27.4696 24.054 25.3436 25.689 23.6246L25.695 23.6196L25.7 23.6146L29.515 19.3596C30.15 18.6976 30.632 18.6506 30.925 18.7036C31.262 18.7636 31.505 18.9836 31.581 19.0666C32.126 19.6666 32.123 20.6016 31.593 21.1826L31.591 21.1846L27.77 25.4276H27.768C27.5613 25.6594 27.4471 25.9591 27.4471 26.2696C27.4471 26.5802 27.5613 26.8799 27.768 27.1116C27.8723 27.2289 28.0002 27.3229 28.1433 27.3873C28.2865 27.4516 28.4416 27.485 28.5986 27.4852C28.7555 27.4854 28.9107 27.4524 29.054 27.3883C29.1973 27.3243 29.3255 27.2307 29.43 27.1136L29.433 27.1096L32.928 23.2056C34.222 21.8396 34.473 20.4236 34.237 19.3166C34.1368 18.8249 33.922 18.3637 33.61 17.9706C33.4786 17.8061 33.322 17.6633 33.146 17.5476C33.1151 17.5281 33.0834 17.5097 33.051 17.4926Z" fill="#2C70C1" stroke="#2C70C1"/>
</svg>
