<svg width="43" height="26" viewBox="0 0 43 26" fill="none" xmlns="http://www.w3.org/2000/svg">
<path d="M25.034 0L23.914 0.161692C23.914 0.161692 15.051 1.35896 11.184 5.57301C6.776 10.3772 11.72 14.9706 11.72 14.9706L12.87 16.032L14.315 15.1179C14.315 15.1179 15.59 14.2748 17.985 13.7627C20.381 13.2505 23.721 13.0813 28.078 14.6636C34.566 17.0204 37.096 20.8419 37.839 22.0725C35.819 22.645 28.531 24.523 21.405 21.9347C18.158 20.7557 16.389 19.5263 15.401 18.6939C18.119 18.4593 20.539 18.6474 22.587 18.994C26.907 19.7245 29.438 21.1791 29.438 21.1791L31.691 19.6503C31.691 19.6503 30.908 19.1809 29.481 18.6197C27.6036 17.8818 25.5652 17.3201 23.43 16.9525C15.401 16.188 4.394 15.7351 0 23.6095L4.395 23.629C5.985 20.8079 8.29701 19.6276 11.329 19.2545C12.312 20.1982 15.301 22.1411 19.737 23.7523C29.769 27.3964 40.919 23.6076 40.919 23.6076L42.129 23.2138L41.735 22.3883C41.735 22.3883 38.697 16.0968 29.745 12.8454C28.3147 12.3253 26.7767 11.9323 25.175 11.6777C26.116 10.9585 27.075 10.062 27.743 8.74708C29.984 4.36316 25.709 0.585739 25.709 0.585739L25.034 0ZM23.469 2.49899C24.23 3.32946 25.915 5.38553 24.539 8.07578C23.849 9.42153 22.842 10.3049 22.009 10.8315C21.179 11.3574 20.682 11.4851 20.682 11.4851C19.342 11.533 17.95 11.5531 16.896 11.7764C16.642 11.8305 16.406 11.906 16.174 11.9683C16.581 11.4015 17.014 10.839 17.497 10.3281C18.2421 9.53605 19.0487 8.76756 19.914 8.02544L17.282 6.72813C17.282 6.72813 15.969 7.80398 14.612 9.24222C13.9821 9.91104 13.4099 10.6008 12.898 11.3083C12.4 10.1237 12.35 8.5338 14.096 6.63125C16.523 3.98567 21.746 2.83936 23.469 2.49899Z" fill="#232B30"/>
</svg>
