<svg width="48" height="49" viewBox="0 0 48 49" fill="none" xmlns="http://www.w3.org/2000/svg">
<g clip-path="url(#clip0)">
<path d="M48 28.0984C48 16.8434 46.403 0.523438 26.452 0.523438C6.50096 0.523438 17.257 19.8344 5.12896 27.2884C-8.19004 35.4734 6.90896 48.5234 22.195 48.5234C33.97 48.5234 48 42.6964 48 28.0984Z" fill="#E2F9C3"/>
<path d="M20.143 15.5234C19.214 15.5234 18.409 15.9034 17.895 16.4814C17.38 17.0594 17.143 17.7974 17.143 18.5234C17.143 19.2494 17.38 19.9874 17.895 20.5654C18.409 21.1444 19.215 21.5234 20.143 21.5234C21.071 21.5234 21.877 21.1434 22.391 20.5654C22.905 19.9874 23.143 19.2494 23.143 18.5234C23.143 17.7974 22.905 17.0594 22.391 16.4814C21.877 15.9024 21.071 15.5234 20.143 15.5234ZM27.857 15.5234C26.929 15.5234 26.123 15.9034 25.609 16.4814C25.095 17.0594 24.857 17.7974 24.857 18.5234C24.857 19.2494 25.095 19.9874 25.609 20.5654C26.123 21.1444 26.929 21.5234 27.857 21.5234C28.786 21.5234 29.591 21.1434 30.106 20.5654C30.62 19.9874 30.857 19.2494 30.857 18.5234C30.857 17.7974 30.62 17.0594 30.106 16.4814C29.591 15.9024 28.786 15.5234 27.857 15.5234ZM20.143 17.2374C20.643 17.2374 20.909 17.3944 21.109 17.6194C21.309 17.8444 21.429 18.1784 21.429 18.5234C21.429 18.8684 21.309 19.2024 21.109 19.4274C20.909 19.6524 20.643 19.8094 20.143 19.8094C19.643 19.8094 19.377 19.6524 19.177 19.4274C18.977 19.2024 18.857 18.8684 18.857 18.5234C18.857 18.1784 18.977 17.8444 19.177 17.6194C19.377 17.3944 19.643 17.2374 20.143 17.2374ZM27.857 17.2374C28.357 17.2374 28.623 17.3944 28.823 17.6194C29.023 17.8444 29.143 18.1784 29.143 18.5234C29.143 18.8684 29.023 19.2024 28.823 19.4274C28.623 19.6524 28.357 19.8094 27.857 19.8094C27.357 19.8094 27.091 19.6524 26.891 19.4274C26.691 19.2024 26.571 18.8684 26.571 18.5234C26.571 18.1784 26.691 17.8444 26.891 17.6194C27.091 17.3944 27.357 17.2374 27.857 17.2374ZM16.286 21.5234C15.5 21.5234 14.802 21.8494 14.359 22.3474C13.9368 22.8308 13.7072 23.4527 13.714 24.0944C13.714 24.6074 13.949 25.0964 14.248 25.5424C12.932 26.2764 12 27.6324 12 29.2374H13.714C13.7124 28.8993 13.7779 28.5642 13.9066 28.2514C14.0353 27.9387 14.2247 27.6546 14.4638 27.4156C14.703 27.1765 14.9872 26.9872 15.2999 26.8586C15.6127 26.73 15.9478 26.6647 16.286 26.6664C16.9332 26.6647 17.5569 26.9091 18.0306 27.3501C18.5043 27.7911 18.7926 28.3957 18.837 29.0414C17.7469 30.2802 17.1448 31.8733 17.143 33.5234H18.857C18.857 30.6734 21.15 28.3804 24 28.3804C26.85 28.3804 29.143 30.6734 29.143 33.5234H30.857C30.857 31.8074 30.212 30.2434 29.163 29.0414C29.2074 28.3957 29.4957 27.7911 29.9694 27.3501C30.4431 26.9091 31.0668 26.6647 31.714 26.6664C32.0522 26.6647 32.3873 26.73 32.7001 26.8586C33.0128 26.9872 33.297 27.1765 33.5362 27.4156C33.7753 27.6546 33.9647 27.9387 34.0934 28.2514C34.2221 28.5642 34.2876 28.8993 34.286 29.2374H36C36 27.6624 35.129 26.2944 33.854 25.5494C34.144 25.1074 34.286 24.5994 34.286 24.0944C34.2931 23.4526 34.0635 22.8306 33.641 22.3474C33.198 21.8494 32.5 21.5234 31.714 21.5234C30.928 21.5234 30.23 21.8494 29.787 22.3474C29.3652 22.831 29.136 23.4528 29.143 24.0944C29.143 24.5994 29.285 25.1074 29.575 25.5494C28.7098 26.0526 28.0473 26.842 27.702 27.7814C27.3605 27.5553 26.9993 27.3602 26.623 27.1984C27.1457 26.5669 27.4309 25.7723 27.429 24.9524C27.429 24.1184 27.155 23.2734 26.569 22.6154C25.985 21.9554 25.072 21.5234 24 21.5234C22.928 21.5234 22.016 21.9564 21.43 22.6154C20.845 23.2734 20.571 24.1184 20.571 24.9524C20.571 25.7514 20.84 26.5524 21.377 27.1984C20.9986 27.361 20.6355 27.5572 20.292 27.7844C19.9172 26.8306 19.2207 26.0378 18.323 25.5434C18.623 25.0964 18.857 24.6074 18.857 24.0944C18.857 23.4754 18.655 22.8444 18.213 22.3474C17.77 21.8494 17.071 21.5234 16.286 21.5234ZM16.286 23.2374C16.643 23.2374 16.802 23.3404 16.93 23.4854C17.059 23.6304 17.143 23.8564 17.143 24.0954C17.143 24.3344 17.059 24.5594 16.93 24.7044C16.802 24.8494 16.643 24.9524 16.286 24.9524C15.929 24.9524 15.77 24.8494 15.641 24.7044C15.512 24.5594 15.429 24.3334 15.429 24.0944C15.429 23.8554 15.513 23.6304 15.641 23.4854C15.769 23.3404 15.929 23.2374 16.286 23.2374ZM24 23.2374C24.643 23.2374 25.016 23.4474 25.287 23.7534C25.558 24.0594 25.714 24.4994 25.714 24.9524C25.714 25.4054 25.559 25.8454 25.287 26.1504C25.015 26.4554 24.643 26.6664 24 26.6664C23.357 26.6664 22.984 26.4564 22.713 26.1504C22.442 25.8444 22.286 25.4044 22.286 24.9524C22.286 24.5004 22.441 24.0584 22.713 23.7524C22.985 23.4464 23.357 23.2374 24 23.2374ZM31.714 23.2374C32.071 23.2374 32.23 23.3404 32.359 23.4854C32.488 23.6304 32.571 23.8564 32.571 24.0954C32.571 24.3344 32.487 24.5594 32.359 24.7044C32.231 24.8494 32.071 24.9524 31.714 24.9524C31.357 24.9524 31.198 24.8494 31.07 24.7044C30.941 24.5594 30.857 24.3334 30.857 24.0944C30.857 23.8554 30.941 23.6304 31.07 23.4854C31.198 23.3404 31.357 23.2374 31.714 23.2374Z" fill="#3A8241"/>
</g>
<defs>
<clipPath id="clip0">
<rect width="48" height="48" fill="white" transform="translate(0 0.523438)"/>
</clipPath>
</defs>
</svg>
