<svg width="48" height="49" viewBox="0 0 48 49" fill="none" xmlns="http://www.w3.org/2000/svg">
<g clip-path="url(#clip0)">
<path d="M46.967 26.2704C50.602 13.1484 44.314 0.523438 33.295 0.523438C27.198 0.523438 24.595 4.02744 17.898 12.1864C11.2 20.3454 1.65 9.00144 0 26.2704C1.386 42.1834 18.652 56.5874 26.668 43.2974C33.966 31.1974 43.333 39.3914 46.968 26.2704H46.967Z" fill="#E2F9C3"/>
<path fill-rule="evenodd" clip-rule="evenodd" d="M34 15.5234C34 15.7887 33.8946 16.043 33.7071 16.2305C33.5196 16.4181 33.2652 16.5234 33 16.5234C32.7348 16.5234 32.4804 16.4181 32.2929 16.2305C32.1054 16.043 32 15.7887 32 15.5234C32 15.2582 32.1054 15.0039 32.2929 14.8163C32.4804 14.6288 32.7348 14.5234 33 14.5234C33.2652 14.5234 33.5196 14.6288 33.7071 14.8163C33.8946 15.0039 34 15.2582 34 15.5234ZM35 15.5234C35 16.0539 34.7893 16.5626 34.4142 16.9377C34.0391 17.3127 33.5304 17.5234 33 17.5234C32.4696 17.5234 31.9609 17.3127 31.5858 16.9377C31.2107 16.5626 31 16.0539 31 15.5234C31 14.993 31.2107 14.4843 31.5858 14.1092C31.9609 13.7342 32.4696 13.5234 33 13.5234C33.5304 13.5234 34.0391 13.7342 34.4142 14.1092C34.7893 14.4843 35 14.993 35 15.5234ZM15 20.0234C15.3978 20.0234 15.7794 19.8654 16.0607 19.5841C16.342 19.3028 16.5 18.9213 16.5 18.5234C16.5 18.1256 16.342 17.7441 16.0607 17.4628C15.7794 17.1815 15.3978 17.0234 15 17.0234C14.6022 17.0234 14.2206 17.1815 13.9393 17.4628C13.658 17.7441 13.5 18.1256 13.5 18.5234C13.5 18.9213 13.658 19.3028 13.9393 19.5841C14.2206 19.8654 14.6022 20.0234 15 20.0234ZM15 21.5234C15.7956 21.5234 16.5587 21.2074 17.1213 20.6448C17.6839 20.0821 18 19.3191 18 18.5234C18 17.7278 17.6839 16.9647 17.1213 16.4021C16.5587 15.8395 15.7956 15.5234 15 15.5234C14.2044 15.5234 13.4413 15.8395 12.8787 16.4021C12.3161 16.9647 12 17.7278 12 18.5234C12 19.3191 12.3161 20.0821 12.8787 20.6448C13.4413 21.2074 14.2044 21.5234 15 21.5234ZM26.5 18.5234C24.319 18.5234 22.94 19.2934 22.103 20.2304C21.807 20.5604 21.593 20.8974 21.436 21.2004C20.527 20.9344 19.226 20.8374 17.946 21.6904C16.391 22.7274 15.759 24.1574 15.568 25.2954C14.857 25.5375 14.2017 25.9197 13.641 26.4194C12.723 27.2454 12 28.4934 12 30.2144C12 32.2224 12.827 33.6174 14.08 34.4674C15.271 35.2764 16.746 35.5234 18 35.5234H30.5C31.64 35.5234 32.982 35.0994 34.054 34.2594C35.153 33.3984 36 32.0694 36 30.3024C36 28.6384 35.402 27.3124 34.433 26.4054C33.8168 25.8338 33.0635 25.4308 32.246 25.2354C32.4 23.9754 32.095 22.5884 31.433 21.4294C30.516 19.8264 28.838 18.5234 26.5 18.5234ZM22.959 22.8074L22.977 22.7434C23.042 22.5094 23.177 22.0304 23.594 21.5634C24.022 21.0834 24.842 20.5234 26.5 20.5234C28 20.5234 29.072 21.3304 29.696 22.4224C30.346 23.5584 30.432 24.8684 30.08 25.6934L29.486 27.0854H31C31.774 27.0854 32.522 27.3554 33.067 27.8654C33.597 28.3624 34 29.1434 34 30.3024C34 31.3604 33.514 32.1424 32.82 32.6844C32.101 33.2484 31.193 33.5234 30.5 33.5234H18C16.961 33.5234 15.937 33.3104 15.202 32.8124C14.528 32.3534 14 31.5954 14 30.2134C14 29.1134 14.44 28.3904 14.979 27.9054C15.546 27.3944 16.238 27.1404 16.661 27.0724L17.5 26.9354V26.0854C17.5 25.3974 17.794 24.1954 19.055 23.3554C20.045 22.6944 21.142 23.1654 21.469 23.3694L22.585 24.0694L22.959 22.8074ZM18.72 28.1634C18.72 26.4334 19.647 25.3674 21.15 25.3674C22.378 25.3674 23.317 26.2054 23.396 27.3634H22.342C22.238 26.7524 21.768 26.3494 21.15 26.3494C20.336 26.3494 19.83 27.0434 19.83 28.1644C19.83 29.2864 20.336 29.9824 21.154 29.9824C21.774 29.9824 22.241 29.6074 22.345 29.0214H23.4C23.31 30.1714 22.4 30.9634 21.15 30.9634C19.65 30.9634 18.72 29.8974 18.72 28.1634ZM24 28.1634C24 26.4364 24.938 25.3674 26.404 25.3674C27.877 25.3674 28.8 26.4404 28.8 28.1634C28.8 29.8894 27.88 30.9634 26.404 30.9634C24.924 30.9634 24 29.8894 24 28.1634ZM27.735 28.1634C27.735 27.0494 27.217 26.3454 26.404 26.3454C25.594 26.3454 25.069 27.0494 25.069 28.1634C25.069 29.2734 25.584 29.9854 26.404 29.9854C27.217 29.9854 27.735 29.2744 27.735 28.1634ZM29.28 29.8194C29.28 29.1614 29.756 28.7284 30.48 28.7284C31.181 28.7284 31.631 29.1064 31.631 29.6924C31.631 30.0954 31.426 30.4224 30.863 30.8624L30.496 31.1924V31.2544H31.68V31.9804H29.341V31.3364L30.233 30.5214C30.69 30.1154 30.799 29.9724 30.799 29.7784C30.799 29.5804 30.651 29.4444 30.442 29.4444C30.22 29.4444 30.069 29.5944 30.069 29.8144V29.8354H29.28V29.8194Z" fill="#3A8241"/>
</g>
<defs>
<clipPath id="clip0">
<rect width="48" height="48" fill="white" transform="translate(0 0.523438)"/>
</clipPath>
</defs>
</svg>
